<svg xmlns="http://www.w3.org/2000/svg" width="1508" height="869" viewBox="0 0 1508 869" fill="none"><path fill-rule="evenodd" clip-rule="evenodd" d="M621.754 0.981167C619.502 2.14906 615.999 6.16514 614.486 9.31494C613.831 10.6771 612.937 12.4108 612.5 13.1676C612.063 13.9243 611.385 15.658 610.993 17.0202L610.282 19.4969H605.582C602.086 19.4969 600.514 19.7368 599.449 20.4325C598.101 21.3137 593.256 29.9342 590.386 36.5585C589.578 38.4237 588.778 39.4254 587.901 39.6675C581.779 41.3605 581.714 41.4001 580.002 44.5461C578.478 47.3458 577.634 48.429 574.002 52.2442C573.282 53.0009 572.509 54.2238 572.286 54.9619C572.062 55.6994 570.3 58.1128 568.37 60.3253C566.441 62.5373 564.862 64.5593 564.862 64.8186C564.862 65.0778 564.181 66.0624 563.348 67.0068C560.559 70.1704 558.968 72.3185 557.976 74.2591C556.956 76.2564 555.756 77.754 553.153 80.2791C552.031 81.3683 551.471 82.6584 551.026 85.183C550.587 87.6756 550.01 89.0218 548.907 90.1237C548.074 90.957 547.207 92.2217 546.981 92.9345C546.755 93.6472 545.854 95.3577 544.98 96.7359C544.105 98.114 543.39 99.5263 543.39 99.8741C543.39 100.222 542.889 100.96 542.276 101.514C541.664 102.068 540.789 103.804 540.334 105.371C539.878 106.938 538.917 108.773 538.197 109.448C537.477 110.124 536.727 111.535 536.53 112.585C536.334 113.634 534.941 116.308 533.435 118.526C531.929 120.744 530.088 124.114 529.343 126.015C528.599 127.915 527.603 129.897 527.13 130.418C525.809 131.877 524.155 135.284 522.997 138.928C522.42 140.744 521.322 143.146 520.557 144.265C518.807 146.825 518.675 150.147 520.267 151.587C521.695 152.879 521.728 156.363 520.334 158.677C519.765 159.621 518.991 161.383 518.614 162.594C518.238 163.805 517.482 165.291 516.935 165.896C516.388 166.502 515.646 168.236 515.285 169.749C514.923 171.263 514.065 173.368 513.377 174.427C512.69 175.487 511.818 177.344 511.439 178.555C511.061 179.766 510.044 181.659 509.178 182.762C508.312 183.865 507.604 185.085 507.604 185.473C507.604 187.107 503.325 194.745 500.842 197.543C499.364 199.208 497.669 201.511 497.074 202.661C496.479 203.811 495.642 204.886 495.213 205.051C494.783 205.216 493.915 206.731 493.284 208.418C491.656 212.767 489.209 215.705 487.214 215.705C485.461 215.705 482.83 216.738 482.83 217.426C482.83 217.669 482.086 218.715 481.178 219.749C480.27 220.783 479.526 221.799 479.526 222.007C479.526 222.214 478.907 223.195 478.149 224.188C477.392 225.18 476.3 227.368 475.72 229.05C475.142 230.732 474.259 232.732 473.759 233.494C473.093 234.511 472.813 236.397 472.708 240.566C472.577 245.777 472.397 246.625 470.54 250.743C469.426 253.214 468.515 255.511 468.515 255.848C468.515 256.185 467.648 258.182 466.588 260.286C465.528 262.39 464.66 264.674 464.659 265.363C464.658 266.051 464.158 267.434 463.547 268.435C462.937 269.436 461.56 272.532 460.487 275.315C458.65 280.076 457.361 282.917 452.2 293.573C451.029 295.989 448.806 299.656 447.259 301.723C445.712 303.789 444.14 306.518 443.765 307.787C443.389 309.056 442.501 310.866 441.789 311.808C441.078 312.751 440.33 314.237 440.127 315.11C439.923 315.984 439.043 317.613 438.171 318.731C437.297 319.848 436.582 320.963 436.581 321.207C436.58 321.452 436.023 322.506 435.342 323.549C433.401 326.526 431.234 330.255 430.018 332.707C429.405 333.945 428.04 336.391 426.983 338.145C425.927 339.898 424.677 342.496 424.204 343.917C423.732 345.34 422.495 347.326 421.456 348.333C420.417 349.34 419.418 350.843 419.235 351.674C418.775 353.771 417.24 354.991 414.623 355.342C412.272 355.657 412.063 355.868 406.578 363.471C405.367 365.15 403.708 367.404 402.892 368.48C402.076 369.555 401.112 371.347 400.749 372.462C400.386 373.576 399.381 375.302 398.517 376.296C397.652 377.29 396.944 378.43 396.944 378.829C396.944 379.227 396.294 380.767 395.501 382.249C394.708 383.732 393.748 385.812 393.368 386.872C392.988 387.931 391.316 390.963 389.652 393.609C387.891 396.407 386.474 399.367 386.263 400.684C386.064 401.928 385.312 403.727 384.591 404.679C383.871 405.631 383.009 407.434 382.676 408.685C382.343 409.936 381.71 411.259 381.27 411.625C380.829 411.99 379.982 413.59 379.387 415.179C378.342 417.971 375.392 422.841 374.358 423.48C374.081 423.651 373.325 425.565 372.68 427.732C372.034 429.9 370.95 432.428 370.271 433.352C369.146 434.882 367.297 438.56 359.849 454.096C358.449 457.014 357.304 459.577 357.304 459.79C357.304 460.003 356.8 460.885 356.182 461.751C355.566 462.617 354.781 464.141 354.439 465.138C354.096 466.136 353.262 467.839 352.583 468.923C351.905 470.008 351.09 471.838 350.772 472.991C350.453 474.144 349.724 475.609 349.152 476.248C348.58 476.886 347.683 478.523 347.158 479.885C346.634 481.247 345.75 482.857 345.195 483.463C344.639 484.068 344.014 485.72 343.807 487.134C343.558 488.821 342.957 490.146 342.06 490.987C341.307 491.692 340.328 493.135 339.884 494.195C339.44 495.254 338.52 496.74 337.839 497.497C335.678 499.898 333.747 503.212 333.348 505.202C332.899 507.449 325.015 519.512 323.996 519.512C322.471 519.512 322.03 517.78 321.738 510.632C321.572 506.586 321.084 501.617 320.652 499.59C320.22 497.563 319.858 494.714 319.847 493.261C319.837 491.807 319.473 489.008 319.041 487.04C318.533 484.733 318.247 480.099 318.234 473.989C318.217 465.651 318.075 464.166 317.049 461.606C316.054 459.124 315.817 456.955 315.436 446.863C315.19 440.355 314.739 434.163 314.433 433.103C314.127 432.044 313.761 427.091 313.619 422.096C313.448 416.079 313.062 411.993 312.476 409.988C311.966 408.242 311.462 403.814 311.286 399.531C311.107 395.164 310.656 391.245 310.193 390.026C309.676 388.662 309.406 385.773 309.406 381.605C309.406 376.868 309.183 374.828 308.526 373.558C307.891 372.33 307.608 370.005 307.51 365.193C307.399 359.758 307.155 358.036 306.188 355.868C305.536 354.405 305.002 352.378 305.002 351.363C305.002 350.348 304.725 348.821 304.385 347.969C304.047 347.117 303.599 341.59 303.391 335.687C303.048 325.975 302.897 324.771 301.806 323.028C300.78 321.389 300.598 320.284 300.58 315.598C300.567 312.571 300.199 308.609 299.76 306.792C299.321 304.976 298.951 301.633 298.936 299.362C298.919 296.753 298.518 294.121 297.844 292.207C297.259 290.543 296.77 288.314 296.758 287.254C296.746 286.195 296.371 284.627 295.924 283.771C294.95 281.904 294.115 276.215 293.446 266.89C293.087 261.891 292.567 258.922 291.544 256.031C290.77 253.842 290.137 250.971 290.137 249.651C290.137 248.332 289.768 246.036 289.317 244.55C288.866 243.064 288.494 240.538 288.491 238.937C288.487 237.122 288.07 235.213 287.384 233.868C286.641 232.413 286.283 230.624 286.283 228.376C286.283 226.227 285.788 223.626 284.893 221.063C284.032 218.602 283.626 216.521 283.827 215.606C284.006 214.792 283.886 213.181 283.559 212.026C283.233 210.871 282.72 207.602 282.419 204.76C281.884 199.721 281.813 199.534 279.535 197.168C278.25 195.834 275.341 193.509 273.07 192.002C270.799 190.495 266.587 187.405 263.71 185.136C260.834 182.867 257.737 180.615 256.828 180.131C255.92 179.648 254.646 178.767 253.997 178.175C253.348 177.583 251.992 176.683 250.983 176.175C248.897 175.126 248.483 173.879 248.038 167.296C247.667 161.805 246.893 161.012 241.908 161.012C238.278 161.012 238.214 161.038 236.246 163.325C234.582 165.259 233.928 165.637 232.254 165.63C230.733 165.624 230.037 165.292 229.351 164.245C228.671 163.207 227.972 162.869 226.503 162.869C223.745 162.869 219.821 166.602 219.073 169.936C218.778 171.25 217.78 173.267 216.856 174.417C215.524 176.073 215.072 177.321 214.684 180.407C214.156 184.61 212.271 188.959 209.698 191.904C208.838 192.889 207.749 195.118 207.279 196.857C206.808 198.597 205.657 202.249 204.721 204.973C202.471 211.523 200.432 220.755 200.413 224.482C200.396 227.678 199.291 229.877 195.695 233.868C194.548 235.141 193.651 237.006 193.047 239.372C192.043 243.312 191.976 244.532 192.471 249.88C192.781 253.232 192.707 253.59 191.509 254.572C190.028 255.785 186.633 260.011 186.633 260.64C186.633 260.87 185.881 261.834 184.962 262.783C183.427 264.366 183.254 264.939 182.842 269.807C182.597 272.722 182.153 275.425 181.856 275.815C180.917 277.046 179.589 281.344 178.951 285.214C178.611 287.271 177.994 289.747 177.578 290.718C177.161 291.688 176.409 294.588 175.906 297.161C175.403 299.734 174.498 303.077 173.895 304.591C173.293 306.104 172.558 309.808 172.263 312.821C171.832 317.228 171.47 318.638 170.412 320.024C169.689 320.972 168.733 323.088 168.289 324.727C167.845 326.366 166.569 330.183 165.453 333.21C164.337 336.237 162.922 340.2 162.309 342.016C161.696 343.833 160.493 346.928 159.636 348.896C158.779 350.864 157.904 353.464 157.692 354.675C157.48 355.886 156.938 357.604 156.487 358.492C156.037 359.381 155.072 362.353 154.343 365.097C153.614 367.84 152.529 371.136 151.932 372.419C151.336 373.702 150.847 374.878 150.847 375.031C150.847 375.185 150.127 376.859 149.247 378.752C148.367 380.645 147.476 383.061 147.266 384.12C147.057 385.179 146.542 386.589 146.122 387.253C145.702 387.916 144.766 390.145 144.042 392.206C143.318 394.267 142.217 397.191 141.596 398.705C140.974 400.218 139.971 402.943 139.366 404.759C137.982 408.911 135.572 415.419 134.881 416.867C134.319 418.047 132.334 423.281 130.082 429.526C129.318 431.645 128.399 433.75 128.039 434.204C126.904 435.639 126.072 438.046 126.081 439.871C126.088 441.429 124.502 445.23 121.029 451.979C120.438 453.128 119.597 456.472 119.161 459.409C118.622 463.038 117.861 465.722 116.787 467.785C115.917 469.454 115.017 471.683 114.785 472.738C114.317 474.874 111.305 482.088 109.244 486.014C108.507 487.417 107.904 488.872 107.904 489.247C107.904 489.993 106.025 494.511 103.214 500.524C102.224 502.643 101.175 505.244 100.885 506.303C100.594 507.363 99.6977 509.198 98.8928 510.381C98.0873 511.565 97.2708 513.518 97.0787 514.721C96.8805 515.96 96.0414 517.692 95.1457 518.712C94.2747 519.703 93.0723 522.008 92.4728 523.833C91.8732 525.659 90.2689 529.44 88.9074 532.236C87.5464 535.032 86.4327 537.685 86.4327 538.132C86.4327 538.578 85.6894 540.517 84.781 542.439C83.8726 544.36 83.1294 546.123 83.1294 546.354C83.1294 546.586 82.4742 547.739 81.6732 548.918C80.2698 550.982 79.6086 552.494 76.7188 560.24C75.4943 563.522 74.3426 566.061 69.855 575.375C68.9802 577.191 68.2639 578.872 68.2645 579.109C68.2645 579.347 67.8494 580.175 67.3418 580.949C65.8811 583.178 62.7876 590.499 61.9067 593.813C61.4641 595.478 60.6036 597.516 59.9947 598.343C59.3858 599.169 58.5082 601.398 58.0435 603.296C57.5794 605.194 56.617 607.985 55.9052 609.498C52.68 616.357 51.748 618.571 51.748 619.378C51.748 620.725 49.7577 627.579 48.8482 629.363C48.3995 630.243 47.8511 632.697 47.6304 634.816C47.4091 636.935 46.9119 639.287 46.526 640.044C45.7205 641.624 43.4897 650.208 43.4897 651.729C43.4897 652.288 42.9771 653.751 42.3506 654.979C41.7241 656.206 40.7342 660.045 40.1506 663.51C39.567 666.975 38.6757 670.605 38.1703 671.576C37.6643 672.547 36.9359 674.704 36.5522 676.369C36.1684 678.034 35.3757 680.758 34.7915 682.423C34.2002 684.107 33.8429 686.225 33.9861 687.198C34.307 689.38 33.3238 692.445 31.6727 694.407C30.9724 695.241 30.1168 697.376 29.7485 699.209C29.384 701.026 28.627 703.502 28.0654 704.713C26.9363 707.149 24.222 717.752 24.2209 719.73C24.2204 720.422 23.8686 721.536 23.4392 722.207C23.0092 722.877 22.4834 724.912 22.2709 726.728C22.0584 728.544 21.2838 731.474 20.5499 733.238C19.816 735.002 18.7308 739.135 18.139 742.422C17.5466 745.709 16.7995 749.09 16.478 749.935C16.1565 750.781 15.5652 753.351 15.1638 755.649C14.763 757.947 13.8898 760.894 13.2242 762.198C12.5586 763.502 11.877 765.962 11.7091 767.664C11.5412 769.366 10.9433 771.677 10.3795 772.8C9.81631 773.923 9.35551 775.556 9.35551 776.428C9.35551 777.3 8.98663 779.229 8.53573 780.715C8.08483 782.201 7.7132 784.601 7.7099 786.049C7.70605 787.747 7.22156 789.633 6.34673 791.359C5.60073 792.831 4.57892 795.857 4.07681 798.083C3.57471 800.308 2.72851 802.996 2.19612 804.056C0.937012 806.564 0.624325 808.821 0.282433 817.864L0 825.343L2.19999 828.484L4.40055 831.623V840.546C4.40055 845.454 4.64004 850.303 4.93238 851.323C5.5033 853.314 9.03287 856.707 11.7273 857.857C13.3492 858.548 16.4092 858.111 18.8448 856.84C20.2812 856.091 20.2839 856.099 19.9668 859.595C19.6029 863.608 19.9646 865.136 21.7919 867.306C22.9827 868.721 23.6126 869 25.6199 869C29.1418 869 30.7367 868.041 32.281 864.994C33.4063 862.774 34.1061 862.116 36.3198 861.196C38.1851 860.421 39.1932 859.611 39.643 858.525C39.9981 857.668 40.8713 856.177 41.5831 855.213C42.2955 854.248 43.2838 852.064 43.7804 850.359C45.8945 843.097 49.5683 837.119 52.4846 836.194C53.4596 835.884 53.5246 835.484 53.2278 831.633L52.9019 827.411L55.5743 826.462C58.9607 825.26 61.3716 822.579 61.8698 819.461C62.0774 818.166 62.6852 816.46 63.2209 815.671C63.7566 814.883 64.6529 813.185 65.2122 811.899C65.7716 810.612 66.4152 809.56 66.6426 809.56C67.3754 809.56 68.2645 806.17 68.2645 803.378C68.2645 801.534 68.8211 799.396 69.9982 796.718C71.2017 793.98 71.8133 791.595 71.9983 788.92C72.1657 786.503 72.7223 784.145 73.4925 782.591C74.1675 781.229 75.0236 778.381 75.3952 776.262C76.0955 772.268 78.949 763.587 80.8226 759.751C82.232 756.865 83.1294 752.492 83.1294 748.511C83.1294 746.589 83.545 744.341 84.1677 742.896C84.7386 741.572 85.6294 737.666 86.1475 734.217C86.6661 730.768 87.5674 726.833 88.1504 725.473C88.734 724.112 89.4425 721.369 89.7244 719.377C90.0878 716.811 91.1124 713.986 93.2402 709.684C94.8919 706.344 96.5122 702.304 96.8414 700.705C97.1706 699.105 97.9475 696.802 98.5679 695.586C99.1884 694.371 100.437 691.097 101.341 688.312C102.245 685.527 104.074 681.02 105.405 678.295C109.085 670.761 110.027 668.58 110.966 665.42C111.44 663.825 112.317 661.649 112.915 660.584C113.513 659.519 114.353 657.303 114.781 655.659C115.209 654.015 116.026 651.997 116.596 651.173C117.166 650.349 118.065 648.561 118.595 647.199C119.124 645.837 119.907 644.334 120.333 643.858C120.76 643.383 121.359 641.672 121.666 640.055C121.976 638.422 122.879 636.255 123.698 635.182C124.746 633.809 125.243 632.391 125.418 630.276C125.602 628.06 126.432 625.821 128.674 621.489C130.789 617.402 131.823 614.677 132.157 612.312C132.517 609.748 132.953 608.686 133.987 607.847C134.82 607.172 135.492 605.896 135.725 604.545C135.934 603.334 136.945 600.817 137.971 598.952C138.997 597.086 139.836 595.209 139.836 594.78C139.836 594.35 140.458 592.781 141.219 591.291C141.979 589.803 142.869 587.606 143.196 586.411C143.524 585.215 145.131 581.451 146.769 578.046C148.406 574.64 149.747 571.532 149.749 571.138C149.75 570.744 150.578 568.811 151.588 566.844C152.795 564.494 153.646 561.786 154.067 558.955C154.44 556.444 155.255 553.688 156.02 552.351C156.741 551.09 157.635 549.067 158.006 547.856C158.377 546.646 159.639 543.717 160.809 541.347C161.98 538.978 163.441 535.351 164.055 533.288C164.67 531.225 165.761 528.458 166.478 527.139C167.197 525.82 167.946 523.657 168.142 522.332C168.339 521.007 169.086 518.902 169.803 517.654C170.519 516.406 171.525 513.898 172.039 512.082C172.553 510.266 173.17 508.532 173.411 508.229C174.927 506.324 177.994 499.394 178.716 496.245C179.188 494.186 180.143 491.836 180.848 490.998C181.59 490.117 182.291 488.335 182.522 486.747C182.74 485.243 183.63 482.475 184.501 480.596C185.371 478.717 186.082 477.035 186.082 476.859C186.082 476.683 186.579 475.867 187.185 475.047C187.791 474.227 188.673 471.698 189.145 469.428C189.616 467.158 190.656 464.186 191.456 462.824C192.256 461.461 193.088 459.232 193.305 457.87C193.89 454.188 202.616 429.332 205.573 422.921C206.271 421.408 207.16 418.807 207.548 417.143C207.937 415.478 208.807 413.001 209.481 411.639C210.155 410.277 211.02 408.171 211.402 406.961C211.785 405.75 212.429 404.378 212.833 403.913C213.238 403.448 214.163 400.847 214.89 398.134C215.617 395.421 216.741 392.214 217.388 391.008C218.035 389.802 218.57 388.316 218.577 387.706C218.584 387.096 219.052 385.579 219.617 384.335C220.182 383.09 220.825 381.005 221.045 379.701C221.265 378.397 222.16 375.653 223.032 373.603C223.905 371.554 224.896 368.561 225.235 366.954C225.573 365.347 227.032 361.555 228.475 358.528C229.919 355.501 231.282 352.157 231.505 351.098C231.728 350.038 232.253 348.503 232.67 347.685C233.088 346.867 233.43 345.186 233.43 343.948C233.43 342.632 233.863 341.077 234.471 340.206C235.129 339.263 235.767 336.787 236.203 333.486C237.034 327.181 237.412 326.328 239.368 326.339C242.475 326.357 242.472 326.344 242.653 339.649C242.746 346.4 243.062 353.269 243.356 354.914C243.65 356.558 243.895 360.026 243.901 362.619C243.915 368.6 244.764 374.528 245.822 376.039C246.385 376.842 246.643 378.606 246.643 381.65C246.643 384.092 246.999 387.455 247.434 389.124C247.967 391.173 248.332 396.795 248.556 406.439C248.769 415.632 249.162 421.897 249.66 424.022C250.112 425.952 250.516 431.375 250.634 437.07C250.807 445.519 250.967 446.962 251.829 447.915C252.65 448.822 252.812 449.906 252.757 454.13C252.707 457.919 252.923 459.674 253.588 460.897C254.353 462.303 254.537 465.573 254.831 482.937C255.128 500.449 255.303 503.518 256.072 504.692C256.672 505.606 257.061 507.782 257.249 511.271C257.529 516.469 258.122 523.7 259.596 539.876C260.037 544.711 260.977 550.738 261.767 553.788C262.533 556.748 263.166 560.339 263.174 561.769C263.182 563.198 263.671 566.473 264.261 569.046C264.851 571.619 265.34 574.51 265.348 575.47C265.356 576.492 265.907 577.866 266.677 578.779C267.4 579.638 268.305 581.387 268.688 582.665C269.071 583.943 269.842 585.403 270.401 585.909C270.96 586.415 271.418 587.167 271.418 587.581C271.418 588.756 275.792 593.209 278.895 595.194C280.439 596.18 282.713 597.159 283.95 597.368C285.186 597.577 287.282 598.436 288.609 599.276C289.935 600.117 292.741 601.373 294.845 602.065C297.315 602.878 299.466 604.051 300.916 605.373C302.151 606.499 304.48 607.859 306.091 608.394C308.017 609.033 310.092 610.35 312.145 612.238C313.864 613.818 315.946 615.28 316.772 615.486C317.598 615.694 319.288 616.598 320.529 617.496C322.777 619.124 322.81 619.13 330.589 619.13C338.273 619.13 338.414 619.108 339.728 617.706C340.462 616.923 341.896 615.933 342.915 615.506C343.934 615.08 345.615 613.987 346.65 613.077C347.686 612.168 348.853 611.425 349.243 611.425C350.199 611.425 360.349 601.411 361.353 599.477C361.792 598.632 363.416 596.623 364.963 595.013C366.51 593.403 368.177 591.298 368.668 590.334C369.159 589.372 370.845 587.098 372.414 585.282C376.226 580.871 378.16 577.574 384.844 564.092C386.12 561.519 387.64 558.892 388.223 558.254C388.805 557.615 389.529 556.199 389.83 555.106C390.132 554.014 390.955 552.431 391.659 551.589C392.363 550.746 393.114 549.439 393.328 548.682C393.755 547.168 393.95 546.723 398.027 537.95C399.574 534.62 401.198 531.276 401.637 530.52C402.075 529.763 402.939 528.029 403.556 526.667C404.767 523.992 405.556 522.502 408.183 517.934C411.861 511.538 412.485 510.332 413.51 507.632C414.094 506.093 415.158 504.284 415.873 503.612C416.589 502.94 417.613 501.351 418.15 500.081C418.686 498.811 420.201 495.5 421.516 492.722C422.83 489.944 424.409 486.325 425.026 484.68C426.393 481.027 433.589 466.902 435.006 465.088C435.571 464.366 436.033 463.548 436.033 463.271C436.033 462.993 436.66 461.849 437.426 460.731C438.193 459.612 439.217 457.34 439.703 455.682C440.612 452.587 441.682 450.769 444.575 447.413C445.488 446.354 447.301 442.811 448.602 439.542C449.904 436.272 451.554 432.735 452.27 431.681C452.985 430.627 453.737 429.007 453.94 428.082C454.396 426.011 458.183 418.491 459.764 416.52C460.403 415.723 461.128 413.988 461.375 412.665C461.647 411.209 463.036 408.44 464.895 405.648C466.583 403.111 467.965 400.801 467.965 400.513C467.965 399.87 471.875 391.929 473.431 389.412C474.055 388.403 474.932 386.539 475.38 385.271C475.827 384.003 476.903 381.925 477.771 380.653C481.067 375.822 482.279 373.862 482.281 373.358C482.282 373.072 483.149 371.118 484.208 369.016C485.266 366.915 486.133 364.842 486.133 364.411C486.133 363.979 486.876 362.78 487.785 361.746C488.693 360.711 489.436 359.54 489.436 359.141C489.436 358.743 490.175 357.398 491.078 356.151C491.982 354.904 492.885 352.855 493.087 351.597C493.325 350.105 493.98 348.84 494.97 347.959C495.853 347.172 496.641 345.763 496.855 344.587C497.057 343.476 498.055 340.833 499.073 338.714C500.09 336.595 501.073 334.159 501.258 333.301C501.442 332.443 502.196 331.181 502.934 330.498C503.749 329.742 504.515 328.142 504.885 326.417C505.27 324.621 505.78 323.579 506.274 323.579C506.882 323.579 507.054 324.553 507.054 328.008C507.054 331.964 506.914 332.567 505.746 333.65C504.619 334.694 504.438 335.373 504.439 338.572C504.439 341.651 504.21 342.588 503.093 344.076C500.97 346.907 498.461 351.668 497.452 354.781C496.942 356.354 496.066 358.224 495.504 358.939C494.942 359.653 494.313 361.137 494.106 362.238C493.9 363.338 492.888 365.546 491.859 367.144C490.829 368.741 489.987 370.266 489.987 370.532C489.987 370.799 489.43 371.798 488.75 372.753C487.592 374.377 487.51 375.074 487.471 383.57C487.432 391.904 487.312 392.968 486.011 396.503C483.648 402.922 482.962 405.162 482.302 408.612C481.954 410.428 481.404 412.657 481.079 413.565C480.755 414.473 480.126 416.702 479.683 418.518C479.239 420.335 478.43 422.688 477.885 423.747C477.341 424.806 476.483 427.531 475.98 429.801C475.477 432.071 474.585 434.861 473.998 436C473.41 437.139 472.404 440.605 471.762 443.703C471.12 446.799 470.133 450.202 469.569 451.263C467.791 454.605 464.661 463.339 464.661 464.96C464.661 465.336 463.796 467.424 462.738 469.6C461.68 471.775 460.59 474.67 460.315 476.033C459.89 478.143 457.855 483.568 455.05 490.067C454.658 490.975 454.176 492.794 453.98 494.108C453.782 495.422 453.144 497.432 452.561 498.574C451.978 499.717 451.209 501.861 450.852 503.34C450.495 504.818 449.245 507.792 448.073 509.948C446.901 512.105 445.943 514.588 445.943 515.467C445.943 516.346 445.603 517.554 445.189 518.151C443.926 519.971 440.561 528.331 436.889 538.775C436.197 540.743 435.059 543.313 434.361 544.485C433.325 546.224 433.023 547.75 432.727 552.741C432.373 558.705 432.287 559.021 429.421 564.918C427.663 568.533 426.312 572.156 426.066 573.911C425.839 575.527 425.01 578.128 424.222 579.69C423.435 581.252 422.319 584.016 421.742 585.832C420.181 590.745 417.958 596.655 417.08 598.222C416.654 598.982 415.693 601.954 414.943 604.827C414.194 607.699 413.193 611.411 412.719 613.076C412.246 614.741 411.703 617.205 411.515 618.553C411.326 619.9 410.804 621.714 410.353 622.584C409.904 623.454 409.391 625.943 409.215 628.115C408.917 631.776 408.746 632.204 406.852 633.99C404.121 636.567 403.356 638.144 403.814 640.249C404.582 643.769 405.033 652.461 404.532 654.079C404.251 654.987 403.674 657.308 403.25 659.236C402.826 661.164 401.751 663.889 400.861 665.29C399.972 666.692 398.572 669.819 397.751 672.241C396.93 674.663 396.05 676.907 395.795 677.227C395.54 677.548 395.261 684.111 395.174 691.812C395.019 705.609 395.036 705.85 396.316 708.291C397.031 709.653 398.332 711.342 399.206 712.045C400.469 713.06 400.797 713.766 400.797 715.467C400.797 716.645 401.214 718.482 401.722 719.547C402.516 721.211 402.558 721.962 402.018 724.862C401.503 727.633 401.531 728.513 402.179 729.765C402.613 730.604 403.121 732.246 403.307 733.412C403.763 736.259 405.027 737.678 407.974 738.654C411.018 739.662 412.015 741.344 411.238 744.159C410.629 746.365 409.405 747.621 407.404 748.097C404.638 748.755 400.878 751.656 399.74 754.011L398.629 756.31L400.048 758.731C400.829 760.062 401.998 761.425 402.646 761.758C403.295 762.092 404.357 762.848 405.007 763.439C406.324 764.636 409.485 764.505 410.207 763.223C410.43 762.827 411.256 761.76 412.042 760.851C412.829 759.943 413.947 757.939 414.527 756.398C415.71 753.255 418.728 748.525 419.817 748.107C420.21 747.956 420.915 747.777 421.384 747.708C421.853 747.639 422.409 747.41 422.62 747.2C423.911 745.909 425.465 749.1 426.028 754.191C426.395 757.513 426.419 757.552 428.6 758.268C433.115 759.75 440.125 757.396 448.719 751.513C452.634 748.832 453.766 748.328 456.372 748.107C463.46 747.508 464.109 746.881 464.115 740.625C464.117 738.128 464.569 734.204 465.12 731.906C465.74 729.316 466.033 726.49 465.89 724.475C465.675 721.451 465.791 721.052 467.555 718.748C468.597 717.386 469.727 715.404 470.066 714.345C470.873 711.816 471.819 703.399 471.819 698.737C471.819 695.867 472.072 694.694 472.95 693.507C473.638 692.577 474.414 690.052 474.928 687.073C475.433 684.15 476.322 681.236 477.13 679.858C477.987 678.394 478.846 675.464 479.471 671.866C480.014 668.742 480.881 665.368 481.398 664.368C481.915 663.368 482.484 661.263 482.663 659.69C482.841 658.117 483.42 655.84 483.949 654.629C485.625 650.789 486.606 645.993 486.875 640.319C487.025 637.156 487.498 633.97 487.987 632.827C488.455 631.733 489.084 629.305 489.386 627.431C489.688 625.557 490.569 622.685 491.343 621.049C492.261 619.108 492.913 616.472 493.218 613.467C493.559 610.1 494.07 608.203 495.113 606.422C495.976 604.952 496.795 602.351 497.179 599.862C497.541 597.522 498.385 594.766 499.132 593.489C499.855 592.252 500.45 590.89 500.454 590.462C500.458 590.034 501.17 588.289 502.036 586.582C503.147 584.393 503.727 582.23 504.008 579.232C504.252 576.632 504.918 573.884 505.725 572.152C506.45 570.595 507.046 568.789 507.048 568.139C507.052 567.488 507.782 565.573 508.671 563.882C509.561 562.192 510.659 559.362 511.112 557.595C511.566 555.827 512.572 553.186 513.349 551.724C514.126 550.264 514.762 548.317 514.762 547.398C514.762 546.479 515.229 544.72 515.8 543.49C516.371 542.259 517.379 539.023 518.041 536.299C518.703 533.574 519.645 530.903 520.134 530.362C520.624 529.821 521.193 527.955 521.397 526.215C521.603 524.475 522.523 521.451 523.444 519.493C524.364 517.536 525.277 514.598 525.474 512.965C525.671 511.332 526.315 509.049 526.906 507.892C527.496 506.735 528.325 504.304 528.749 502.491C529.172 500.679 530.024 498.484 530.644 497.614C531.377 496.586 531.968 494.46 532.334 491.543C532.683 488.759 533.614 485.326 534.784 482.507C538.343 473.93 543.059 459.712 543.687 455.669C543.898 454.307 544.413 452.523 544.832 451.706C545.25 450.888 545.947 448.783 546.38 447.028C547.507 442.461 550.676 434.482 551.897 433.133C552.659 432.29 553.138 430.33 553.686 425.801C554.221 421.388 554.824 418.875 555.794 417.015C556.542 415.583 557.154 413.766 557.154 412.978C557.154 410.749 558.851 404.497 560.273 401.487C560.98 399.989 561.558 398.341 561.558 397.823C561.558 397.305 562.321 395.186 563.253 393.115C564.415 390.533 564.994 388.31 565.094 386.046C565.181 384.072 565.69 381.859 566.36 380.543C566.976 379.332 567.65 377.474 567.858 376.415C568.331 374.005 569.657 369.773 570.995 366.406C571.558 364.988 572.019 363.128 572.019 362.274C572.019 361.419 572.661 359.515 573.445 358.042C574.23 356.568 575.248 354.093 575.708 352.542C576.168 350.991 577.013 348.802 577.585 347.68C578.158 346.556 578.625 344.946 578.625 344.101C578.625 342.31 580.543 335.327 581.29 334.396C581.57 334.047 582.076 332.454 582.413 330.856C582.75 329.258 583.405 327.37 583.871 326.66C584.676 325.432 585.308 322.621 586.296 315.874C586.541 314.209 587.254 311.834 587.882 310.597C588.511 309.36 589.329 307.131 589.701 305.644C590.072 304.157 590.922 301.909 591.589 300.65C592.256 299.39 592.979 296.93 593.197 295.184C593.416 293.438 594.065 291.131 594.641 290.058C595.216 288.984 595.563 287.713 595.411 287.233C595.14 286.38 596.324 281.186 598.419 274.045C598.996 272.078 599.73 268.734 600.051 266.615C600.384 264.412 601.344 261.374 602.293 259.52C603.204 257.737 603.951 255.931 603.951 255.507C603.951 255.084 604.702 253.294 605.62 251.531C606.544 249.756 607.441 247.004 607.63 245.362C607.839 243.542 608.427 241.849 609.153 240.975C610.138 239.789 610.453 238.273 611.041 231.894C611.523 226.653 612.065 223.628 612.758 222.31C614.378 219.226 621.017 198.79 621.031 196.841C621.053 194.01 622.023 190.343 623.583 187.198C624.653 185.041 625.022 183.466 625.001 181.144C624.985 179.417 625.322 176.783 625.748 175.29C626.174 173.798 626.523 171.389 626.523 169.938C626.523 168.269 626.928 166.636 627.622 165.497C628.227 164.506 628.722 163.066 628.723 162.298C628.725 161.529 629.25 159.919 629.891 158.72C631.094 156.472 631.386 155.327 632.736 147.596C633.171 145.098 634.039 142.003 634.663 140.716C635.915 138.138 636.819 133.628 637.509 126.525C637.758 123.963 638.361 120.946 638.849 119.82C639.337 118.695 639.737 117.138 639.737 116.361C639.737 115.584 640.101 114.393 640.545 113.714C641.489 112.275 642.972 106.118 643.421 101.778C643.593 100.113 644.063 98.5582 644.466 98.3226C645.486 97.7271 646.337 94.3467 646.34 90.8805C646.344 87.1985 647.245 85.4714 650.383 83.1268C654.608 79.9715 655.139 76.0814 651.767 73.0026C650.108 71.488 650.062 71.3218 650.319 67.7389C650.465 65.7036 650.973 63.1806 651.448 62.1316C651.924 61.0826 652.437 59.3577 652.589 58.2983C652.74 57.2388 653.265 55.0098 653.756 53.3449C654.396 51.177 654.551 49.2897 654.304 46.6964C654.001 43.5306 654.146 42.6308 655.454 39.5415C656.543 36.9691 656.927 35.1847 656.864 32.981C656.745 28.7899 656.498 28.2484 653.877 26.4459C652.61 25.5741 650.243 23.5922 648.617 22.0412C646.99 20.4908 645.549 19.2217 645.414 19.2217C644.858 19.2217 642.886 20.476 641.911 21.4507C641.336 22.0258 640.178 22.6621 639.338 22.8657C638.497 23.0688 636.792 24.1618 635.549 25.2945C632.739 27.8543 631.253 28.6683 630.157 28.2478C628.198 27.496 628.686 21.121 630.919 18.2827C631.461 17.5937 632.078 16.1071 632.289 14.9794C632.501 13.8522 633.115 12.3018 633.653 11.5351C634.191 10.7679 634.952 9.24174 635.344 8.14375C635.987 6.33797 635.94 5.9593 634.847 4.1926C632.511 0.413176 625.951 -1.19556 621.754 0.981167ZM1131.97 15.4588C1130.94 15.7565 1128.02 17.4676 1125.5 19.2619C1122.97 21.0561 1120.68 22.5239 1120.41 22.5239C1120.14 22.5239 1119.34 23.2053 1118.63 24.0375C1115.52 27.6947 1112.4 29.6546 1108.94 30.1274C1105.85 30.5506 1105.38 30.8115 1102.6 33.6553C1100.95 35.3444 1098.82 37.1292 1097.87 37.6218C1096.92 38.1138 1094.09 40.3902 1091.6 42.6797C1089.1 44.9699 1086.19 47.4185 1085.13 48.1224C1084.07 48.8258 1082.09 50.44 1080.73 51.7092C1077.74 54.4968 1073.45 57.394 1070.51 58.6202C1069.32 59.1167 1068.22 59.6869 1068.07 59.8878C1067.91 60.0886 1066.72 61.0876 1065.41 62.1074C1063.85 63.3166 1062.58 64.9732 1061.74 66.8704C1060.25 70.2359 1058.68 71.264 1053.32 72.3857C1048.08 73.4798 1044.14 75.4744 1042.64 77.7777C1041.94 78.8564 1040.71 79.9693 1039.91 80.2511C1039.11 80.5323 1035.73 83.4939 1032.39 86.8319C1029.05 90.1699 1025.37 93.3863 1024.21 93.9802C1022.35 94.9307 1018.13 98.8818 1012.34 105.097C1011.35 106.167 1009.25 107.973 1007.67 109.113C1006.1 110.253 1004.67 111.618 1004.5 112.147C1004.34 112.676 998.563 118.612 991.675 125.338C977.98 138.71 977.778 138.911 971.575 145.253C969.226 147.655 966.196 150.269 964.844 151.061C963.396 151.909 961.376 153.897 959.928 155.897C958.576 157.764 956.403 160.58 955.098 162.154C952.997 164.687 952.504 165.003 950.798 164.906L948.871 164.796L948.743 110.584C948.62 57.7886 948.587 56.2894 947.505 53.2211C946.894 51.4879 946.394 49.6299 946.394 49.0916C946.394 48.5533 945.541 46.9143 944.499 45.4492C943.457 43.9841 942.439 42.0325 942.237 41.1117C942.035 40.191 941.406 38.4187 940.84 37.1727C940.274 35.9266 939.806 34.133 939.799 33.1858C939.782 30.6645 938.701 30.0558 934.751 30.3415C931.921 30.5462 931.153 30.8307 930.088 32.068C929.387 32.8825 928.552 34.521 928.232 35.7092L927.65 37.8689L926.128 36.996C925.002 36.3499 923.938 36.2233 922.03 36.5095C919.802 36.8436 919.242 37.2085 917.895 39.2036C915.568 42.6506 915.427 43.18 915.021 50.0427C914.689 55.6537 914.448 56.7605 912.902 59.7958C911.229 63.081 911.158 63.4949 911.14 69.9778C911.126 75.3489 910.895 77.3572 910.014 79.7629C908.765 83.1758 908.006 90.3824 907.407 104.53L906.999 114.161L905.119 116.776C904.085 118.213 903.026 119.39 902.766 119.39C902.506 119.39 901.934 120.249 901.496 121.299C900.825 122.903 900.697 129.364 900.692 161.889L900.687 200.57L899.316 203.514C898.485 205.3 897.945 207.448 897.945 208.975C897.945 210.359 897.56 213.548 897.089 216.062C896.256 220.504 896.14 220.724 892.959 223.904C891.16 225.703 889.687 227.57 889.687 228.053C889.687 228.536 888.931 229.39 888.009 229.951C887.086 230.512 878.694 238.535 869.361 247.78C860.027 257.024 851.553 265.013 850.531 265.534C848.705 266.463 846.454 268.33 844.635 270.425C844.129 271.007 842.531 272.617 841.082 274.002C838.784 276.2 833.17 281.77 832.007 283.005C831.785 283.241 830.439 284.603 829.015 286.032C827.591 287.461 825.84 289.249 825.125 290.006C823.675 291.54 821.744 293.092 818.235 295.545C816.938 296.453 815.451 297.877 814.931 298.711C814.412 299.546 812.887 301.21 811.543 302.41C810.199 303.609 807.97 305.815 806.588 307.31C805.206 308.806 802.939 311.159 801.549 312.539C800.158 313.919 798.329 316.101 797.484 317.387C795.797 319.954 795.283 320.144 793.463 318.869C792.257 318.026 792.239 317.82 792.239 305.085V292.157L790.834 290.753L789.429 289.348L789.502 276.33C789.559 266.192 789.324 261.243 788.437 253.956C787.81 248.81 787.291 242.495 787.283 239.922C787.274 237.273 786.924 234.289 786.475 233.042C786.038 231.831 785.67 230.117 785.657 229.233C785.644 228.349 785.199 227.147 784.669 226.561C783.931 225.746 783.624 224.087 783.357 219.463L783.009 213.429L780.522 210.852C779.154 209.435 777.102 207.21 775.963 205.908C774.149 203.834 773.648 203.562 771.919 203.707C770.303 203.843 769.792 204.199 769.097 205.675C768.631 206.666 767.577 208.1 766.756 208.861C765.934 209.623 765.262 210.466 765.262 210.735C765.262 211.878 763.394 212.954 761.408 212.954C759.3 212.954 757.555 211.865 757.555 210.549C757.555 210.178 756.596 208.939 755.424 207.794C752.703 205.139 749.567 204.317 746.973 205.579C744.984 206.547 741.142 211.045 739.734 214.054C738.764 216.128 736.143 219.095 733.559 221.045C729.306 224.254 725.623 227.366 725.623 227.749C725.623 227.983 724.268 229.938 722.613 232.095C720.958 234.252 719.227 236.917 718.767 238.019C718.306 239.119 717.307 240.76 716.546 241.664C715.785 242.569 715.162 243.671 715.162 244.115C715.162 245.576 710.776 253.9 709.405 255.04C708.435 255.847 707.988 256.879 707.799 258.751C707.634 260.389 706.942 262.212 705.92 263.704C705.03 265.002 704.142 266.56 703.947 267.165C703.752 267.771 702.233 269.615 700.571 271.263C698.91 272.912 697.396 274.77 697.207 275.391C697.018 276.013 696.555 276.893 696.179 277.347C695.064 278.691 694.771 281.534 695.574 283.223C697.011 286.247 697.039 288.135 695.677 290.141C694.86 291.344 694.264 293.279 694.011 295.551C693.617 299.078 692.011 302.634 688.443 307.873C687.36 309.464 686.892 310.952 686.712 313.377C686.364 318.081 686.113 319.012 684.878 320.162C684.277 320.722 683.366 322.894 682.851 324.993C682.337 327.091 681.221 329.773 680.371 330.954C679.521 332.134 678.826 333.335 678.826 333.621C678.826 333.907 678.335 334.831 677.735 335.673C677.135 336.515 675.888 339.154 674.963 341.537C674.038 343.92 672.514 347.355 671.576 349.171C669.693 352.818 667.839 359.165 667.824 362.018C667.815 363.808 667.494 364.356 663.548 369.316C662.564 370.553 661.759 371.995 661.759 372.521C661.759 373.046 661.16 374.66 660.427 376.106C659.695 377.552 658.662 380.504 658.133 382.666C657.603 384.828 656.624 387.835 655.957 389.349C655.29 390.862 654.564 392.967 654.344 394.027C654.124 395.086 653.439 396.82 652.822 397.879C651.756 399.71 650.847 402.095 647.737 411.226C646.989 413.42 646.098 415.686 645.755 416.259C644.711 418.009 642.978 423.314 642.499 426.224C641.878 429.99 641.084 431.852 639.167 434.035C638.205 435.13 637.534 436.515 637.534 437.406C637.534 440.254 636.077 444.532 634.375 446.681C633.439 447.862 632.495 449.811 632.278 451.01C632.06 452.21 631.509 453.928 631.052 454.828C630.596 455.728 629.894 457.871 629.493 459.592C629.091 461.313 628.156 463.614 627.415 464.706C626.674 465.798 625.89 467.74 625.674 469.022C625.238 471.614 621.493 481.555 620.224 483.492C619.776 484.175 619.188 486.943 618.917 489.643C618.55 493.298 618.062 495.175 617.005 496.988C616.224 498.328 615.284 500.662 614.917 502.175C614.549 503.689 613.775 505.876 613.195 507.036C612.615 508.195 611.667 510.996 611.088 513.26C610.509 515.524 609.574 518.043 609.009 518.857C608.446 519.671 607.818 520.796 607.615 521.356C607.412 521.916 606.734 523.031 606.108 523.833C605.482 524.635 603.926 527.076 602.65 529.259C601.375 531.442 598.174 535.476 595.537 538.225C592.901 540.973 590.335 544.017 589.835 544.989C589.336 545.96 586.795 548.938 584.189 551.605C581.584 554.272 575.44 560.587 570.537 565.639C565.634 570.692 560.614 575.815 559.382 577.026C550.127 586.118 525.829 610.401 524.914 611.473C524.291 612.203 521.86 614.534 519.512 616.653C517.164 618.772 515.011 621.001 514.728 621.607C514.445 622.212 513.923 623.111 513.568 623.606C512.623 624.92 514.33 628.179 516.858 629.883C517.976 630.637 520.253 632.243 521.919 633.453C527.874 637.779 529.143 638.039 545.455 638.277L559.907 638.488V640.174C559.907 641.102 559.314 643.124 558.59 644.667C555.573 651.096 554.952 652.527 554.952 653.044C554.952 653.343 554.172 654.813 553.219 656.31C552.266 657.807 551.174 660.205 550.793 661.639C550.412 663.073 549.354 665.459 548.44 666.943C545.928 671.025 540.765 682.09 539.759 685.55C539.104 687.802 538.08 689.472 535.899 691.844C534.266 693.619 532.93 695.323 532.93 695.63C532.93 695.937 531.443 697.712 529.626 699.574C527.81 701.436 526.323 703.254 526.323 703.613C526.323 704.596 522.018 711.058 520.286 712.676C519.452 713.455 518.586 714.669 518.362 715.376C518.138 716.082 517.36 717.536 516.633 718.606C514.865 721.211 514.715 727.747 516.374 729.856C517.099 730.777 517.55 732.506 517.792 735.296C518.188 739.863 518.787 740.843 521.735 741.748C523.666 742.34 523.831 742.282 525.781 740.326C526.899 739.204 528.221 737.494 528.72 736.525C529.98 734.076 531.164 733.521 533.05 734.496C534.245 735.113 534.581 735.678 534.581 737.064C534.581 739.988 537.129 741.937 541.345 742.238C545.849 742.56 547.388 741.578 553.588 734.433C560.375 726.611 567.555 719.457 569.372 718.704C571.06 718.005 572.367 715.559 574.349 709.391C574.981 707.424 576.063 705.195 576.751 704.438C577.441 703.681 578.496 701.91 579.098 700.502C579.699 699.094 581.202 696.343 582.436 694.389C583.671 692.434 584.682 690.559 584.682 690.222C584.682 689.322 587.358 683.425 588.213 682.442C588.616 681.977 589.256 680.637 589.633 679.464C590.01 678.29 591.028 676.279 591.896 674.994C593.578 672.501 596.794 665.687 596.794 664.613C596.794 664.258 597.289 663.105 597.895 662.05C598.5 660.996 600.221 657.596 601.718 654.495C603.215 651.395 605.054 648.052 605.804 647.065C606.554 646.08 607.343 644.53 607.557 643.622C607.771 642.713 608.391 641.227 608.935 640.319C609.479 639.411 610.223 637.43 610.588 635.916C610.954 634.403 611.969 631.888 612.843 630.327C613.717 628.766 614.777 626.347 615.197 624.951C615.618 623.554 616.711 621.239 617.629 619.807C619.534 616.832 620.247 615.134 621.371 610.89C621.81 609.234 622.507 607.501 622.92 607.038C623.333 606.575 624.087 604.834 624.595 603.169C625.103 601.504 626.229 598.532 627.097 596.565C627.966 594.597 628.847 591.912 629.055 590.597C629.263 589.283 630.04 587.487 630.781 586.606C631.703 585.511 632.308 583.833 632.699 581.291C633.013 579.248 633.838 576.462 634.531 575.1C635.225 573.738 636.208 570.89 636.717 568.771C637.225 566.652 638.034 564.175 638.514 563.267C638.994 562.359 640.34 559.769 641.505 557.513C643.62 553.416 644.673 552.192 655.703 540.999C664.89 531.676 668.916 527.309 668.916 526.668C668.916 525.947 673.156 521.714 673.879 521.714C674.162 521.714 674.754 521.033 675.195 520.2C675.636 519.367 677.976 516.682 680.395 514.231C682.814 511.78 685.834 508.56 687.107 507.076C696.272 496.383 697.529 495.067 699.581 494.005C700.522 493.519 701.874 492.365 702.584 491.443C704.575 488.857 707.978 484.611 708.427 484.151C708.649 483.923 711.013 481.57 713.681 478.922C721.092 471.562 721.769 470.811 721.769 469.936C721.769 469.489 722.11 468.634 722.526 468.037C722.943 467.44 723.944 464.956 724.752 462.517C725.947 458.908 726.695 457.627 728.766 455.637C730.166 454.292 733.351 451.148 735.845 448.651C738.416 446.076 740.842 444.111 741.449 444.111C742.037 444.111 743.933 443.645 745.662 443.074L748.805 442.038L749.738 443.463C750.59 444.761 750.683 448.089 750.785 481.099C750.856 504.167 751.104 518.059 751.469 519.374C751.785 520.509 752.046 526.144 752.05 531.896C752.055 540.835 752.195 542.592 753.016 544.004C753.899 545.522 753.999 548.978 754.254 586.933C754.512 625.249 754.603 628.364 755.527 630.339C756.074 631.509 756.393 632.802 756.237 633.211C755.769 634.429 757.478 648.151 758.359 650.26C758.807 651.331 760.977 654.17 763.181 656.569C767.657 661.441 769.702 662.375 772.398 660.783C773.213 660.302 775.596 659.744 777.692 659.543C779.789 659.342 782.932 658.857 784.678 658.464C786.859 657.973 788.438 657.912 789.724 658.267C792.331 658.986 795.497 658.159 798.972 655.851C804.615 652.104 804.077 655.997 804.068 618.934C804.062 595.5 803.868 585.264 803.374 582.39C802.893 579.585 802.684 570.375 802.673 551.439C802.658 527.455 802.554 524.222 801.726 522.134C800.917 520.091 800.757 516.407 800.489 493.645C800.217 470.592 800.068 467.212 799.224 465.052C798.358 462.838 798.267 459.901 798.274 434.506C798.281 411.798 798.129 405.777 797.483 403.108C796.55 399.257 796.43 395.762 797.164 393.832C797.449 393.081 798.75 391.39 800.054 390.075C801.358 388.76 802.785 386.944 803.224 386.04C803.664 385.135 804.56 383.776 805.215 383.019C805.907 382.219 806.689 380.146 807.082 378.066C807.866 373.918 808.247 373.338 810.914 372.23C811.998 371.78 814.124 370.231 815.638 368.788C817.152 367.345 819.877 365.084 821.694 363.764C823.511 362.444 825.371 360.973 825.829 360.496C827.187 359.08 831.5 355.727 832.954 354.957C833.696 354.564 835.549 353.016 837.072 351.517C838.595 350.019 840.509 348.447 841.326 348.025C842.143 347.603 842.96 346.791 843.141 346.222C843.503 345.079 848.157 340.64 848.992 340.64C849.282 340.64 855.026 335.284 861.757 328.736C868.488 322.19 874.87 316.277 875.939 315.598C877.008 314.918 880.162 312.102 882.95 309.339C885.737 306.576 888.253 304.316 888.54 304.316C888.827 304.316 889.227 303.798 889.428 303.165C889.629 302.532 890.574 301.661 891.529 301.23C892.484 300.799 893.706 300.141 894.244 299.767C895.042 299.214 895.322 299.241 895.75 299.913C896.661 301.341 896.38 304.193 895.25 304.984C894.297 305.651 894.184 306.72 893.945 317.261C893.695 328.242 893.599 329.084 891.96 334.454C890.858 338.065 890.237 341.279 890.237 343.366C890.237 345.663 889.904 347.195 889.116 348.532C888.498 349.579 887.763 352.248 887.479 354.48C887.195 356.706 886.719 359.642 886.422 361.004C886.124 362.366 885.865 365.71 885.845 368.434C885.817 372.314 885.552 373.924 884.626 375.864C883.598 378.015 883.379 379.826 882.965 389.624C882.402 402.968 882.405 402.413 882.844 410.838C883.125 416.24 883.027 417.856 882.309 419.574C881.715 420.995 881.423 423.402 881.411 426.979C881.398 430.764 881.163 432.583 880.585 433.346C879.508 434.77 879.547 439.395 880.651 441.079C881.918 443.013 881.594 459.677 880.249 461.723C879.627 462.669 879.265 464.772 879.088 468.462C878.86 473.2 878.652 474.083 877.3 476.032C875.886 478.071 875.799 478.498 876.151 481.676C876.36 483.567 876.601 485.78 876.687 486.593C876.773 487.407 876.539 489.016 876.166 490.171C875.794 491.325 875.364 494.784 875.211 497.858C874.983 502.427 874.716 503.739 873.752 505.043C872.577 506.631 872.573 506.749 872.734 534.952C872.88 560.694 872.983 563.427 873.859 565.028C875.134 567.36 875.076 570.579 873.721 572.623C872.683 574.19 872.627 575.241 872.623 593.262L872.619 612.25L874.409 615.759C875.59 618.075 877.395 620.368 879.719 622.502C883.405 625.886 884.157 626.127 889.847 625.749C890.692 625.693 892.334 626.142 893.496 626.748C894.658 627.353 896.816 628.023 898.291 628.236C902.285 628.814 905.756 630.085 907.305 631.535C909.124 633.24 912.811 634.053 915.436 633.328C917.976 632.627 921.981 629.14 923.715 626.119C925.75 622.572 926.009 616.209 924.323 611.15C923.093 607.46 923.034 606.529 922.924 589.135C922.815 571.8 922.863 570.834 923.976 567.945C925.01 565.265 925.184 563.341 925.494 551.159C925.689 543.517 926.127 536.421 926.481 535.198C926.871 533.851 927.241 526.056 927.433 515.109C927.606 505.271 927.979 496.107 928.264 494.745C928.547 493.383 928.881 486.566 929.005 479.597C929.221 467.41 929.285 466.802 930.655 463.705C932.009 460.644 932.08 460.008 932.093 450.785C932.1 445.449 932.373 439.969 932.699 438.607C933.024 437.245 933.334 432.168 933.387 427.324C933.474 419.326 933.598 418.3 934.739 416.142C935.827 414.082 935.911 413.514 935.371 411.877C934.939 410.571 934.915 409.436 935.293 408.199C935.593 407.215 935.959 403.908 936.104 400.851C936.275 397.298 936.689 394.676 937.252 393.588C937.866 392.4 938.12 390.499 938.09 387.314C938.066 384.8 938.42 381.01 938.876 378.891C939.332 376.773 939.837 373.029 939.998 370.573C940.16 368.116 940.711 365.02 941.223 363.693C941.814 362.161 942.275 358.826 942.485 354.564C942.693 350.334 943.069 347.594 943.503 347.162C944.008 346.657 944.191 343.52 944.191 335.369C944.191 326.144 944.349 323.903 945.123 322.132C945.831 320.513 946.145 317.524 946.433 309.681C946.707 302.208 947.02 299.11 947.566 298.453C948.134 297.77 948.405 294.347 948.663 284.557C948.851 277.413 949.42 267.482 949.927 262.487C950.434 257.493 950.851 251.534 950.853 249.247C950.856 246.144 951.113 244.696 951.867 243.548C952.423 242.702 958.176 236.648 964.653 230.095C971.13 223.543 977.29 217.099 978.341 215.775C979.393 214.452 981.077 212.806 982.085 212.118C984.452 210.503 994.316 201.373 997.536 197.818C998.907 196.305 1002.64 192.528 1005.83 189.425C1013.05 182.409 1014.92 180.555 1016.47 178.896C1017.14 178.175 1018.42 177.131 1019.32 176.576C1020.21 176.021 1021.33 174.847 1021.8 173.967C1022.26 173.086 1024.69 170.645 1027.19 168.541C1029.68 166.438 1033.31 162.869 1035.24 160.611C1037.18 158.353 1039.65 156.026 1040.74 155.44C1042.03 154.744 1043 153.661 1043.55 152.303C1044.06 151.024 1045.27 149.608 1046.72 148.606C1048.02 147.713 1049.36 146.656 1049.72 146.257C1051.42 144.374 1055.77 140.11 1060.85 135.351C1065.05 131.422 1096.07 101.109 1099.72 97.3694C1115.47 81.2439 1133.97 63.6237 1137.27 61.6198C1138.26 61.0177 1139.23 59.7986 1139.59 58.7061C1139.93 57.673 1141.78 55.2707 1143.7 53.3675L1147.19 49.9078L1146.92 46.1999C1146.66 42.5592 1146.69 42.4519 1148.65 40.284C1149.75 39.0698 1150.65 37.8348 1150.65 37.5398C1150.65 37.2448 1152.17 35.1869 1154.04 32.9673C1157.01 29.4278 1157.42 28.6672 1157.34 26.7794C1157.23 23.9599 1157.17 23.8933 1154.1 23.0754C1152.66 22.6907 1150.89 22.0115 1150.17 21.5674C1149.18 20.9592 1148.57 20.9031 1147.69 21.3417C1145.28 22.5426 1142.22 23.6247 1141.25 23.6247C1140.51 23.6247 1140.15 23.0721 1139.9 21.5608C1139.08 16.5496 1139.04 16.4654 1137.05 15.6321C1134.85 14.7147 1134.59 14.7059 1131.97 15.4588ZM1450.42 69.0504C1449.51 69.4665 1447.16 69.8176 1445.19 69.8314C1442.02 69.8534 1441.31 70.0697 1438.95 71.7489C1435.89 73.924 1429.05 77.3165 1423.45 79.4338C1421.33 80.2357 1418.85 81.2302 1417.94 81.6441C1417.03 82.0579 1414.55 82.8351 1412.44 83.3706C1410.32 83.9067 1407.09 85.2765 1405.28 86.4153C1403.46 87.554 1401.23 88.6663 1400.32 88.887C1398.34 89.368 1394.28 91.6422 1390.14 94.5867C1388.47 95.77 1385.71 97.5202 1384.01 98.4762C1382.3 99.4316 1379.46 101.432 1377.7 102.922C1375.94 104.411 1374.25 105.63 1373.96 105.63C1373.66 105.63 1372.86 106.15 1372.19 106.785C1371.51 107.42 1368.94 109.126 1366.48 110.577C1364.01 112.027 1360.52 114.604 1358.73 116.302C1356.93 118 1355.12 119.39 1354.71 119.39C1353.84 119.39 1350.05 122.319 1345.91 126.177C1344.35 127.639 1341.7 129.568 1340.04 130.463C1336.51 132.358 1334.29 133.94 1332.22 136.044C1331.4 136.873 1330.19 137.552 1329.52 137.552C1328.01 137.552 1322.1 141.228 1317.67 144.921C1315.81 146.468 1313.48 148.229 1312.48 148.835C1305.86 152.853 1301.43 155.894 1300.21 157.254C1299.65 157.877 1298.22 158.552 1297.02 158.755C1295.82 158.957 1294.36 159.636 1293.77 160.263C1292.68 161.434 1292.12 161.803 1284.47 166.369C1282 167.84 1279.65 169.385 1279.23 169.801C1277.87 171.159 1271.54 175.515 1269.66 176.383C1266.79 177.71 1261.35 181.583 1260.73 182.739C1260.42 183.313 1259.83 183.784 1259.43 183.784C1259.02 183.784 1258.3 184.369 1257.83 185.085C1257.36 185.801 1255.91 186.943 1254.61 187.622C1253.3 188.301 1250.87 190.034 1249.2 191.472C1247.53 192.911 1245.43 194.471 1244.52 194.94C1242.01 196.234 1240.16 198.496 1237.87 203.047C1236.58 205.604 1234.52 208.48 1232.44 210.604C1228.13 215.033 1226.39 217.216 1225.22 219.657C1224.32 221.556 1224.32 221.79 1225.45 225.499L1226.62 229.361L1229.49 229.755C1232.03 230.104 1232.7 230.505 1235.38 233.247C1238.36 236.296 1238.46 236.344 1241.55 236.344C1243.88 236.344 1245.11 236.045 1246.26 235.193C1247.12 234.56 1248.72 233.746 1249.82 233.383C1250.92 233.022 1252.25 232.244 1252.79 231.655C1253.32 231.065 1255.02 229.868 1256.57 228.993C1258.12 228.117 1260.6 226.389 1262.1 225.152C1263.59 223.915 1265.49 222.756 1266.31 222.576C1267.13 222.396 1268.91 221.545 1270.26 220.685C1271.62 219.825 1273.81 218.637 1275.14 218.043C1277.69 216.9 1284.14 212.819 1286.91 210.597C1287.82 209.868 1289.91 208.602 1291.55 207.784C1293.19 206.967 1296 205.195 1297.8 203.847C1299.59 202.499 1301.32 201.396 1301.64 201.396C1301.96 201.396 1302.99 200.812 1303.92 200.099C1304.86 199.386 1306.62 198.265 1307.83 197.609C1309.04 196.951 1311.4 195.308 1313.06 193.956C1314.73 192.605 1317.19 190.994 1318.54 190.377C1319.88 189.76 1321.37 188.905 1321.84 188.478C1324.98 185.626 1326.88 184.106 1329.25 182.541C1330.74 181.56 1332.97 180.075 1334.21 179.243C1335.45 178.41 1337.7 177.138 1339.21 176.417C1340.73 175.696 1342.44 174.582 1343.01 173.941C1343.59 173.301 1344.37 172.776 1344.75 172.776C1345.12 172.776 1346.76 171.882 1348.38 170.789C1350 169.695 1351.82 168.58 1352.43 168.31C1353.03 168.04 1354.64 166.956 1356 165.902C1357.37 164.848 1359.72 163.131 1361.23 162.086C1371.88 154.742 1374.23 153.079 1375.15 152.249C1375.72 151.734 1376.41 151.312 1376.69 151.312C1376.97 151.312 1379.06 149.925 1381.33 148.229C1386.83 144.123 1390.98 141.477 1393.85 140.245C1395.15 139.688 1396.36 138.864 1396.53 138.413C1396.7 137.963 1397.32 137.443 1397.91 137.258C1398.49 137.073 1399.76 136.196 1400.73 135.311C1401.7 134.424 1402.89 133.7 1403.37 133.7C1404.62 133.7 1409.22 130.666 1411.11 128.604C1411.99 127.637 1413.41 126.469 1414.25 126.008C1416.49 124.791 1419.19 123.14 1421.17 121.78C1423.35 120.284 1429.37 116.279 1434.73 112.757C1437 111.267 1439.98 109.187 1441.34 108.135C1442.7 107.083 1444.99 105.554 1446.43 104.738C1449.31 103.106 1453.09 98.6143 1454.07 95.677C1454.41 94.6434 1456 92.4353 1457.59 90.7704C1459.18 89.1055 1460.76 87.2023 1461.1 86.5413C1462.09 84.5963 1461.81 81.9506 1460.34 79.4481C1459.59 78.1624 1458.61 75.7231 1458.17 74.0269C1457.15 70.1192 1457 69.9035 1454.78 68.9744C1452.61 68.0696 1452.56 68.0707 1450.42 69.0504ZM1202.68 124.563C1198.77 125.797 1196.97 127.049 1195.51 129.536C1193.51 132.942 1189.74 144.765 1189.74 147.611C1189.74 150.547 1188.14 153.769 1185.69 155.789C1183.04 157.971 1182.03 160.454 1182.03 164.75C1182.03 168.351 1182.01 168.401 1180.15 169.286C1177.97 170.326 1176.52 169.974 1176.52 168.403C1176.52 167.795 1175.87 166.873 1175.08 166.353C1173.64 165.411 1173.63 165.415 1171.23 167.959C1168.91 170.412 1168.82 170.645 1168.8 173.983C1168.8 175.892 1168.56 178.445 1168.28 179.656C1168.01 180.867 1167.63 185.056 1167.44 188.964C1167.21 193.867 1166.83 196.598 1166.21 197.77C1165.71 198.739 1165.15 201.753 1164.91 204.785C1164.6 208.786 1164.13 210.868 1163.02 213.207C1161.97 215.434 1161.42 217.747 1161.09 221.376C1160.84 224.16 1160.12 227.855 1159.49 229.589C1158.87 231.322 1158.36 233.25 1158.36 233.875C1158.36 235.707 1153.59 253.927 1152.62 255.803C1152.13 256.747 1151 258.35 1150.11 259.366C1147.83 261.962 1147.27 263.68 1148.04 265.724C1148.59 267.173 1148.49 267.718 1147.36 269.759C1146.63 271.057 1145.6 272.435 1145.06 272.823C1144.53 273.21 1143.94 274.448 1143.77 275.575C1143.59 276.701 1143.1 278.985 1142.67 280.65C1139.29 293.891 1139.39 293.072 1140.41 297.983C1142.09 306.103 1141.36 316.841 1138.5 326.331C1137.9 328.298 1137.18 332.509 1136.89 335.687C1136.22 343.137 1135.39 348.225 1134.08 353.024C1133.5 355.143 1133.02 357.867 1133.02 359.078C1133.02 360.289 1132.64 362.369 1132.17 363.701C1131.71 365.032 1131.13 368.277 1130.89 370.912C1130.64 373.546 1130.25 376.007 1130.02 376.38C1129.79 376.753 1129.28 378.462 1128.89 380.177C1127.44 386.435 1125.86 390.155 1124.28 390.969C1121.08 392.624 1116.92 403.573 1115.58 413.84C1114.19 424.554 1114 425.633 1113.3 426.923C1112.57 428.241 1110.77 434.828 1109.88 439.384C1109.59 440.87 1108.23 445.116 1106.86 448.819C1105.49 452.522 1104.13 456.974 1103.85 458.713C1103.57 460.452 1102.97 462.275 1102.53 462.765C1102.09 463.254 1101.56 465.015 1101.37 466.679C1100.92 470.494 1099.63 476.828 1098.28 481.8C1097.71 483.913 1097.24 487.332 1097.24 489.398C1097.24 492.634 1096.98 493.659 1095.32 496.785C1094.26 498.781 1093.39 501.059 1093.39 501.846C1093.39 502.632 1092.91 504.064 1092.32 505.027C1091.19 506.878 1090.39 510.681 1089.78 517.035C1089.56 519.301 1088.9 521.908 1088.16 523.365C1087.47 524.727 1086 527.823 1084.89 530.244C1083.77 532.666 1082.16 536.01 1081.31 537.675C1080.46 539.339 1079.45 541.692 1079.07 542.903C1078.68 544.114 1077.96 545.724 1077.45 546.481C1076.94 547.237 1075.36 550.147 1073.94 552.947C1072.53 555.747 1070.87 558.533 1070.27 559.139C1069.66 559.744 1069.17 560.871 1069.17 561.643C1069.17 563.272 1067.85 566.042 1066.77 566.679C1066.36 566.921 1065.26 568.729 1064.33 570.697C1062.29 574.993 1059.36 578.548 1057.08 579.492C1055.66 580.081 1055.2 580.046 1054 579.264C1052.01 577.957 1050.45 575.156 1050.45 572.868C1050.45 571.651 1049.93 570.21 1049.08 569.059C1048.33 568.04 1047.31 566.073 1046.81 564.687C1046.31 563.3 1045.31 560.638 1044.59 558.77C1043.88 556.902 1043.29 554.646 1043.29 553.756C1043.29 552.867 1042.53 550.68 1041.61 548.897C1040.1 545.982 1039.89 544.932 1039.49 538.5C1039.21 534.007 1038.71 530.599 1038.16 529.341C1037.54 527.949 1037.27 525.749 1037.28 522.134C1037.29 519.273 1036.91 515.268 1036.44 513.234C1035.97 511.201 1035.58 508.059 1035.58 506.253C1035.58 503.987 1035.16 501.953 1034.21 499.699C1032.89 496.57 1032.83 495.95 1032.84 485.268C1032.86 474.232 1033.05 472.446 1034.7 467.953C1035.37 466.136 1035.56 462.877 1035.6 452.467C1035.64 443.226 1035.88 438.317 1036.42 436.055C1036.97 433.783 1037.2 429.036 1037.21 420.014C1037.23 409.006 1037.37 406.912 1038.19 405.154C1039.08 403.266 1039.17 399.375 1039.32 354.764C1039.46 314.974 1039.62 306.468 1040.21 306.698C1041.14 307.054 1042.03 304.124 1042.45 299.362C1042.61 297.395 1042.91 293.985 1043.1 291.786L1043.45 287.786L1041.15 285.594C1039 283.554 1038.62 283.401 1035.65 283.401C1033.89 283.401 1031.02 282.907 1029.25 282.301C1027.49 281.695 1025.58 281.2 1025.01 281.2C1024.44 281.2 1023.01 281.695 1021.82 282.301C1020.14 283.158 1018.57 283.401 1014.76 283.401C1010.13 283.401 1009.74 283.495 1007.76 285.065C1006.61 285.98 1005.03 286.864 1004.25 287.03C1001.62 287.585 1000.32 288.338 997.599 290.881C994.378 293.894 993.916 295.176 993.461 302.389C993.113 307.91 991.515 316.051 990.275 318.625C989.827 319.555 989.493 325.718 989.244 337.613C989.041 347.3 988.618 357.702 988.303 360.729C987.989 363.756 987.492 372.177 987.199 379.442C986.906 386.707 986.364 394.259 985.993 396.225C985.481 398.937 985.467 400.529 985.936 402.829C986.771 406.918 986.891 425.447 986.093 426.938C985.339 428.346 985.296 433.091 986.02 434.993C986.337 435.829 986.65 450.158 986.786 470.116C987.002 501.751 987.086 504.114 988.145 508.505C988.996 512.036 989.341 515.745 989.55 523.64C989.957 538.994 990.673 546.434 992.039 549.521C993.536 552.904 993.557 556.873 992.089 558.739C990.687 560.522 990.68 563.635 992.072 566.702C992.697 568.077 993.286 571.017 993.507 573.857C993.905 578.992 994.19 579.824 997.607 585.832C1000.29 590.553 1000.74 591.51 1001.11 593.262C1001.5 595.07 1005.71 601.518 1006.51 601.518C1007.57 601.518 1010.77 604.253 1011.62 605.886C1012.45 607.494 1017.32 610.656 1020.72 611.795C1021.87 612.182 1026.46 612.458 1032.17 612.483C1040.85 612.522 1041.93 612.635 1044.28 613.757C1046.42 614.776 1048.01 615.02 1053.48 615.168C1059.48 615.331 1060.42 615.218 1063.81 613.937C1065.86 613.161 1068.22 612.524 1069.04 612.523C1070.45 612.521 1072.78 611.757 1081.13 608.564C1083.01 607.843 1085.24 606.622 1086.08 605.849C1086.92 605.077 1088.6 603.863 1089.81 603.151C1092.63 601.494 1100 595.47 1100 594.82C1100 594.548 1102.06 592.167 1104.59 589.528C1107.11 586.89 1109.65 583.865 1110.23 582.805C1110.81 581.746 1112.09 579.949 1113.07 578.813C1114.06 577.677 1114.86 576.562 1114.86 576.334C1114.86 576.107 1116.34 573.94 1118.14 571.52C1120.16 568.799 1121.55 566.338 1121.76 565.072C1121.95 563.946 1122.55 562.46 1123.09 561.769C1124.75 559.636 1125.87 557.065 1125.87 555.388C1125.87 554.407 1126.49 553.077 1127.47 551.959C1128.34 550.955 1129.36 549.144 1129.72 547.934C1130.08 546.724 1130.72 545.221 1131.12 544.594C1131.53 543.967 1132.14 542.24 1132.47 540.758C1132.8 539.275 1133.56 537.379 1134.15 536.545C1134.75 535.711 1135.23 534.868 1135.23 534.672C1135.23 534.16 1139.39 524.231 1141.24 520.338C1142.1 518.521 1142.97 516.116 1143.17 514.992C1143.37 513.868 1144.13 511.639 1144.87 510.039C1145.6 508.438 1146.6 505.395 1147.09 503.276C1147.58 501.157 1148.42 498.68 1148.96 497.772C1149.53 496.809 1150.33 493.254 1150.89 489.242C1151.45 485.281 1152.3 481.513 1152.9 480.361C1153.57 479.086 1153.95 477.238 1153.95 475.27C1153.95 473.57 1154.17 472.18 1154.43 472.18C1154.86 472.18 1155.39 470.538 1157.27 463.374C1157.55 462.314 1157.79 460.544 1157.79 459.44C1157.8 458.331 1158.42 456.36 1159.18 455.037C1160.24 453.171 1160.55 451.85 1160.56 449.064C1160.57 444.959 1161.62 440.543 1163.19 437.933C1163.91 436.733 1164.38 434.693 1164.58 431.829C1164.76 429.322 1165.24 426.977 1165.75 426.207C1166.22 425.481 1166.61 424.056 1166.61 423.042C1166.61 420.009 1167.69 415.104 1169.34 410.625C1170.24 408.195 1171.28 403.614 1171.8 399.806C1172.3 396.173 1173.18 391.344 1173.76 389.073C1174.34 386.803 1174.96 383.609 1175.15 381.976C1175.33 380.343 1176.01 377.99 1176.66 376.748C1177.58 374.974 1177.8 373.7 1177.68 370.825C1177.6 368.746 1177.81 366.633 1178.19 365.939C1178.55 365.266 1179.04 363.447 1179.28 361.897C1179.53 360.347 1180.11 358.044 1180.59 356.781C1181.76 353.639 1182.49 348.691 1182.87 341.265C1183.14 335.999 1183.38 334.75 1184.4 333.376C1185.42 331.996 1185.66 330.751 1185.94 325.322C1186.28 318.75 1186.96 314.275 1188.5 308.444C1188.98 306.627 1189.55 302.417 1189.75 299.087C1189.96 295.757 1190.51 291.795 1190.98 290.281C1192.08 286.675 1193.49 279.021 1193.81 274.871C1193.95 273.054 1194.56 270.154 1195.16 268.425C1195.77 266.696 1196.43 264.095 1196.63 262.646C1196.82 261.197 1197.7 257.782 1198.59 255.057C1199.65 251.766 1200.29 248.462 1200.48 245.213C1200.66 242.108 1201.16 239.436 1201.84 237.895C1203.04 235.177 1203.83 231.19 1204.37 225.062C1204.58 222.627 1205.15 220.251 1205.74 219.269C1206.39 218.189 1206.95 215.544 1207.34 211.75C1207.66 208.531 1208.39 204.451 1208.96 202.683C1209.99 199.448 1210.78 193.791 1210.99 188.187C1211.06 186.522 1211.13 184.588 1211.16 183.889C1211.19 183.19 1211.44 182.76 1211.72 182.934C1212.33 183.311 1212.68 182.245 1213.15 178.555C1213.34 177.042 1213.85 173.857 1214.28 171.477C1214.71 169.097 1215.07 165.259 1215.08 162.946C1215.09 160.092 1215.46 157.769 1216.23 155.715C1217.13 153.292 1217.42 150.903 1217.65 143.752C1218.05 131.449 1217.71 129.101 1215.15 126.742C1212.01 123.845 1207.46 123.05 1202.68 124.563ZM1488.14 125.285C1487.68 125.453 1485.82 126.327 1484.01 127.228C1481.74 128.349 1479.58 128.949 1477.13 129.132C1473.22 129.424 1468.46 130.93 1466.08 132.624C1465.25 133.216 1464.34 133.7 1464.06 133.7C1463.78 133.7 1462.44 134.434 1461.08 135.333C1459.11 136.637 1457.65 137.076 1453.84 137.508C1451.22 137.806 1448.59 138.307 1448.01 138.62C1447.42 138.934 1445.82 140.503 1444.45 142.107L1441.96 145.022L1438.2 144.81C1434.46 144.598 1434.43 144.606 1425.37 149.074C1420.38 151.535 1415.3 154.282 1414.09 155.179C1412.88 156.075 1409.78 158.081 1407.21 159.636C1404.63 161.191 1401.53 163.186 1400.32 164.07C1399.11 164.953 1396.35 166.84 1394.18 168.263C1392 169.686 1387.71 172.584 1384.63 174.702C1381.56 176.821 1378.25 179.035 1377.29 179.622C1373.25 182.095 1364.62 188.477 1362.39 190.639C1361.07 191.922 1359.15 193.553 1358.13 194.264C1357.11 194.975 1354.79 196.826 1352.98 198.379C1351.16 199.931 1348.87 201.677 1347.89 202.261C1344.78 204.111 1336.48 209.85 1335.91 210.545C1335.61 210.913 1334.17 211.76 1332.73 212.427C1331.28 213.095 1329.79 214.043 1329.42 214.535C1329.05 215.028 1327.27 216.545 1325.47 217.907C1323.66 219.269 1321.75 220.807 1321.22 221.324C1320.7 221.841 1319.32 222.778 1318.18 223.406C1313.77 225.819 1303.14 233.167 1300.4 235.697C1299.64 236.396 1297.41 237.919 1295.44 239.083C1293.47 240.247 1289.88 242.483 1287.46 244.054C1285.04 245.625 1281.32 247.714 1279.2 248.696C1277.08 249.678 1273.86 251.18 1272.04 252.033C1270.23 252.885 1267.25 253.856 1265.44 254.188C1260.5 255.094 1257.41 256.14 1254 258.063L1250.93 259.795L1249.95 263.94L1248.97 268.086L1244.91 270.653C1242.67 272.064 1239.19 274.436 1237.17 275.924C1235.16 277.411 1230.9 279.967 1227.73 281.603C1224.55 283.239 1221.67 284.931 1221.34 285.362C1221 285.794 1218.42 287.451 1215.6 289.045C1209.71 292.373 1209 293.466 1210.11 297.446C1210.6 299.178 1211.34 300.238 1212.79 301.241C1213.89 302.006 1216.15 303.755 1217.82 305.128C1220.96 307.715 1226.19 310.466 1229.86 311.453C1231.03 311.766 1232.94 312.677 1234.12 313.477C1235.3 314.276 1237.33 315.296 1238.64 315.744C1239.95 316.191 1241.15 316.895 1241.31 317.308C1241.47 317.722 1241.18 321.222 1240.66 325.085C1240.15 328.949 1239.56 333.719 1239.35 335.687C1239.14 337.712 1238.52 339.944 1237.93 340.83C1237.13 342.042 1236.85 343.656 1236.69 347.966C1236.58 351.03 1236.15 354.783 1235.73 356.307C1235.31 357.831 1234.81 360.264 1234.61 361.713C1234.42 363.163 1233.9 365.198 1233.47 366.236C1233.04 367.274 1232.68 369.556 1232.68 371.306C1232.68 373.515 1232.34 375.04 1231.58 376.29C1230.97 377.282 1230.48 379.015 1230.47 380.143C1230.46 383.965 1228.39 395.389 1227.26 397.894C1225.78 401.167 1224.43 402.348 1219.47 404.725C1214.77 406.973 1210.85 409.589 1207.96 412.403C1206.87 413.466 1204.62 414.939 1202.95 415.677C1201.29 416.415 1198.36 418.274 1196.44 419.808C1194.53 421.342 1192.42 422.76 1191.76 422.96C1191.1 423.16 1190.06 423.778 1189.46 424.334C1188.85 424.89 1187.22 425.844 1185.83 426.455C1184.09 427.226 1183 428.177 1182.26 429.559C1181.64 430.726 1180.18 432.146 1178.73 432.985C1173.71 435.889 1168.91 440.829 1168.29 443.717C1167.52 447.357 1169.45 451.578 1175 458.421C1178.19 462.343 1181.21 465.575 1181.69 465.575C1182.25 465.575 1185.65 468.286 1190.37 472.493C1192.2 474.122 1194.5 475.579 1195.89 475.995C1198.97 476.914 1203.1 479.01 1204.01 480.115C1204.53 480.742 1204.67 482.393 1204.49 486.075C1204.29 490.496 1204.02 491.596 1202.5 494.41C1201.54 496.193 1200.75 498.051 1200.74 498.538C1200.74 499.025 1200.1 500.786 1199.31 502.451C1198.53 504.115 1197.55 506.716 1197.15 508.229C1196.74 509.743 1195.89 511.963 1195.27 513.161C1194.65 514.361 1194.14 515.806 1194.14 516.374C1194.14 516.942 1193.27 518.957 1192.21 520.852C1191.02 522.995 1190.26 525.107 1190.22 526.445C1190.09 530.686 1189.63 531.406 1183.96 536.245C1177.02 542.157 1176.93 542.239 1173.71 546.176C1172.23 547.983 1170.87 550.279 1170.68 551.302C1170.27 553.491 1171.57 556.857 1173.88 559.571C1174.73 560.565 1175.42 561.594 1175.42 561.858C1175.42 562.376 1178.22 565.899 1181.19 569.132C1183.66 571.809 1184.1 574.777 1182.9 580.708C1181.76 586.383 1181.96 586.641 1187.88 587.046C1190.26 587.209 1192.59 587.656 1193.04 588.038C1193.49 588.421 1195.11 589.357 1196.62 590.118C1198.13 590.879 1199.97 592.146 1200.71 592.933C1201.44 593.719 1202.27 594.363 1202.55 594.363C1202.82 594.363 1203.68 594.858 1204.45 595.464C1205.51 596.295 1206.68 596.562 1209.22 596.556C1213.62 596.544 1216.56 594.967 1218.09 591.801C1218.7 590.547 1219.62 589.05 1220.14 588.475C1220.66 587.899 1221.44 586.45 1221.88 585.254C1224.02 579.309 1226.25 575.577 1229.29 572.85C1231 571.314 1233.27 569.577 1234.33 568.991C1235.39 568.405 1237.75 566.812 1239.56 565.453C1241.38 564.093 1243.48 562.568 1244.24 562.064C1248.53 559.206 1250.57 558.038 1251.27 558.038C1251.7 558.038 1253.58 556.72 1255.44 555.108C1257.31 553.496 1259.7 551.656 1260.76 551.019C1261.82 550.383 1263.92 548.707 1265.44 547.296C1266.95 545.884 1269.06 544.161 1270.12 543.466C1273 541.579 1274.81 539.326 1275.55 536.718C1276.06 534.921 1277.43 533.179 1281.49 529.124C1284.4 526.23 1288 523.193 1289.49 522.375C1290.99 521.557 1293.16 520.37 1294.32 519.737C1295.48 519.103 1297.1 518.051 1297.93 517.399C1298.76 516.747 1300.46 515.949 1301.71 515.625C1302.96 515.301 1304.97 514.347 1306.18 513.504C1307.39 512.661 1309.12 511.791 1310.03 511.571C1310.94 511.351 1312.14 510.76 1312.7 510.257C1313.93 509.144 1317.97 506.755 1321.32 505.154C1322.68 504.502 1324.46 503.319 1325.27 502.522C1326.64 501.18 1328.08 500.023 1333.62 495.837C1334.78 494.958 1336.27 494.072 1336.92 493.869C1337.58 493.665 1339.01 492.727 1340.12 491.783C1341.22 490.839 1343.82 488.885 1345.9 487.44C1347.97 485.995 1350.79 483.956 1352.15 482.908C1353.51 481.861 1355.76 480.4 1357.14 479.662C1358.52 478.924 1359.99 477.911 1360.41 477.411C1360.82 476.912 1362.04 476.051 1363.12 475.499C1364.2 474.946 1366.22 473.492 1367.61 472.268C1369 471.042 1371.16 469.634 1372.4 469.137C1373.64 468.64 1375.05 467.636 1375.53 466.905C1376.01 466.174 1376.76 465.575 1377.19 465.575C1377.62 465.575 1378.98 464.623 1380.2 463.459C1382.24 461.527 1382.43 461.099 1382.43 458.542C1382.43 454.63 1383.15 453.139 1385.86 451.399C1389.47 449.092 1398.94 438.438 1399.58 435.974C1400.32 433.11 1401.22 430.902 1401.64 430.902C1403.39 430.902 1408.73 422.746 1409.63 418.697C1409.97 417.181 1409.57 416.855 1402.62 412.885C1401.96 412.511 1400.63 412.202 1399.66 412.197C1398.69 412.193 1397.31 411.923 1396.6 411.596C1395.5 411.096 1394.79 411.301 1392.03 412.915C1390.23 413.966 1386.34 415.859 1383.38 417.122C1378.49 419.206 1377.72 419.384 1375 419.046C1371.41 418.597 1366.95 419.547 1365.59 421.052C1365.05 421.64 1363.34 422.494 1361.77 422.95C1360.2 423.405 1358.37 424.366 1357.69 425.086C1357.01 425.805 1355.62 426.552 1354.59 426.745C1353.55 426.939 1351.78 427.957 1350.64 429.008C1348.42 431.063 1343.71 433.654 1342.2 433.654C1341.69 433.654 1340.93 434.063 1340.52 434.563C1339.28 436.058 1334.4 439.441 1332.33 440.237C1331.27 440.645 1329.12 441.808 1327.56 442.82C1325.99 443.833 1324.54 444.661 1324.33 444.661C1324.13 444.661 1322.77 445.726 1321.33 447.027C1319.88 448.329 1317.18 450.201 1315.33 451.188C1313.47 452.174 1311.96 453.173 1311.96 453.407C1311.96 453.64 1311.28 454.176 1310.45 454.596C1309.61 455.016 1307.94 456.015 1306.73 456.815C1305.52 457.615 1303.45 458.861 1302.13 459.584C1298.03 461.836 1295.1 463.547 1290.26 466.539C1287.69 468.128 1285.37 469.428 1285.1 469.428C1284.51 469.428 1272.21 477.519 1271.79 478.184C1271.04 479.362 1266.16 482.614 1264.42 483.093C1263.36 483.387 1260.71 485.076 1258.54 486.847C1256.37 488.618 1253.69 490.526 1252.58 491.088C1251.48 491.648 1250.14 492.488 1249.62 492.952C1248.85 493.638 1248.51 493.667 1247.83 493.103C1246.69 492.153 1246.78 488.983 1248.05 485.642C1248.63 484.116 1249.5 480.897 1249.99 478.487C1250.47 476.078 1251.46 472.744 1252.17 471.079C1252.99 469.18 1253.6 466.4 1253.82 463.619C1254.3 457.305 1257.18 449.818 1260.6 445.955C1262.81 443.462 1269.58 437.811 1271.64 436.749C1272.6 436.25 1274.3 435.226 1275.41 434.473C1276.52 433.72 1277.84 433.103 1278.33 433.103C1279.24 433.103 1283.99 430.328 1286.67 428.239C1287.44 427.633 1289 426.966 1290.12 426.755C1291.46 426.503 1293.76 425.079 1296.86 422.583C1299.44 420.499 1301.8 418.794 1302.08 418.794C1302.37 418.794 1303.16 418.153 1303.84 417.37C1304.52 416.587 1305.9 415.602 1306.9 415.182C1307.9 414.762 1309.39 413.904 1310.2 413.274C1314.87 409.666 1316.08 408.885 1317.92 408.288C1319.03 407.925 1320.74 406.983 1321.71 406.194C1325.5 403.121 1326.83 402.223 1328.86 401.378C1330.01 400.897 1331.72 399.85 1332.65 399.053C1334.94 397.095 1337.55 395.037 1340.93 392.536C1343.4 390.703 1349.24 385.675 1353.06 382.081C1353.77 381.414 1354.35 380.266 1354.35 379.531C1354.35 377.821 1357.91 374.552 1361.72 372.77C1363.27 372.043 1366.15 370.298 1368.12 368.892C1373.93 364.738 1378.01 363.62 1382.64 364.905C1384.59 365.446 1384.96 365.362 1387.04 363.899C1388.29 363.02 1390.18 361.964 1391.24 361.552C1392.3 361.14 1394.74 359.672 1396.65 358.29C1398.57 356.907 1401 355.207 1402.05 354.513C1403.1 353.818 1404.11 352.827 1404.3 352.311C1405.53 348.986 1412.44 342.23 1417.05 339.851C1417.99 339.361 1418.77 338.731 1418.77 338.45C1418.77 338.17 1419.92 337.432 1421.32 336.81C1422.73 336.189 1424.43 335.125 1425.11 334.445C1427.36 332.175 1429.49 330.572 1431.17 329.87C1432.08 329.487 1433.26 328.692 1433.8 328.103C1434.33 327.515 1435.76 326.583 1436.99 326.032C1439.92 324.71 1441.55 321.605 1440.66 319.049C1440.14 317.564 1440.21 317.218 1441.11 316.575C1443.99 314.535 1446.18 313.024 1447.76 312C1450 310.542 1451.38 307.238 1450.71 304.907C1450.09 302.743 1450.49 299.864 1451.93 296.26C1453.19 293.073 1453 291.359 1451.11 289.192C1449.83 287.722 1445.23 286.485 1441.48 286.596C1440.49 286.625 1438.82 286.655 1437.76 286.662C1434.68 286.684 1433.73 286.716 1426.51 287.042C1419.86 287.342 1419.58 287.406 1416.65 289.278C1414.09 290.917 1413.01 291.249 1409.46 291.501C1406.46 291.714 1404.96 292.088 1404.15 292.822C1403.53 293.385 1401.79 294.079 1400.29 294.363C1398.79 294.648 1395.95 295.641 1393.99 296.571C1392.02 297.5 1390.01 298.261 1389.53 298.261C1389.04 298.262 1387.7 299.005 1386.56 299.913C1385.42 300.821 1384.19 301.564 1383.84 301.564C1383.49 301.564 1382.09 302.252 1380.75 303.093C1379.4 303.934 1376.52 305.312 1374.34 306.156C1372.16 307 1369.31 308.5 1368.01 309.49C1366.71 310.48 1364.29 311.963 1362.65 312.784C1361 313.606 1358.15 315.325 1356.32 316.605C1354.48 317.885 1351.83 319.367 1350.43 319.9C1349.03 320.431 1347.44 321.353 1346.9 321.948C1346.36 322.542 1345.64 323.028 1345.29 323.028C1344.28 323.028 1337.09 327.504 1336.29 328.625C1335.89 329.179 1335.36 329.633 1335.11 329.633C1334.51 329.633 1322.33 337.3 1319.19 339.66C1317.86 340.653 1315.26 342.704 1313.4 344.218C1308.72 348.041 1305.39 350.269 1303.3 350.98C1302.32 351.313 1300.36 352.466 1298.95 353.543C1297.54 354.619 1296.15 355.501 1295.86 355.501C1295.2 355.501 1288.93 359.251 1287.46 360.527C1286.18 361.637 1277.7 365.958 1276.8 365.958C1276.47 365.958 1276.05 365.372 1275.87 364.655C1275.53 363.316 1275.95 361.38 1277.84 355.463C1278.44 353.589 1278.93 351.159 1278.94 350.063C1278.95 348.967 1279.44 346.229 1280.04 343.98C1280.65 341.696 1281.13 338.127 1281.13 335.898C1281.13 333.702 1281.41 331.209 1281.74 330.357C1282.08 329.505 1282.52 323.949 1282.72 318.012C1283.08 307.269 1283.09 307.205 1284.68 304.803C1287.09 301.187 1293.19 295.499 1295.99 294.254C1298.93 292.949 1303.13 290.121 1304.15 288.764C1304.54 288.233 1305.66 287.395 1306.63 286.902C1307.59 286.409 1309.41 285.066 1310.67 283.917C1311.92 282.769 1313.92 281.334 1315.11 280.729C1316.29 280.124 1317.62 279.2 1318.05 278.674C1318.49 278.149 1320.1 277.163 1321.64 276.482C1323.17 275.801 1324.85 274.603 1325.37 273.819C1325.88 273.035 1326.64 272.394 1327.05 272.394C1327.46 272.394 1328.12 272.002 1328.51 271.523C1328.91 271.045 1330.61 269.925 1332.3 269.034C1335.02 267.595 1337.18 266.106 1345.41 260.011C1346.63 259.102 1348.34 257.932 1349.2 257.41C1352.65 255.326 1358.84 251.083 1364.26 247.1C1365.93 245.876 1368.2 244.265 1369.31 243.521C1370.42 242.777 1371.47 241.941 1371.64 241.663C1371.81 241.385 1374.99 239.351 1378.7 237.142C1382.42 234.933 1386.2 232.471 1387.11 231.67C1388.02 230.868 1390.21 229.363 1391.98 228.325C1393.75 227.287 1396.72 225.109 1398.59 223.483C1400.45 221.859 1403.46 219.839 1405.28 218.996C1407.09 218.152 1409.81 216.425 1411.32 215.157C1412.82 213.89 1414.96 212.39 1416.07 211.826C1417.17 211.261 1418.22 210.431 1418.39 209.98C1418.57 209.53 1420.64 208.268 1423 207.178C1425.37 206.087 1428.04 204.476 1428.95 203.598C1429.86 202.72 1431.49 201.632 1432.57 201.18C1433.66 200.728 1434.88 199.955 1435.29 199.461C1435.7 198.967 1436.98 198.081 1438.14 197.492C1439.29 196.902 1440.24 196.218 1440.24 195.971C1440.24 195.535 1444.19 192.775 1450.97 188.468C1452.79 187.315 1455.39 185.473 1456.75 184.374C1458.12 183.275 1460.22 182.041 1461.43 181.632C1462.65 181.222 1464.86 180.001 1466.35 178.918C1467.84 177.834 1469.73 176.566 1470.55 176.1C1471.37 175.634 1473 174.552 1474.17 173.696C1475.34 172.841 1478.25 170.983 1480.64 169.569C1483.03 168.154 1487.28 165.635 1490.09 163.97C1496.49 160.179 1499.27 157.427 1500.49 153.682C1501 152.11 1501.9 150.213 1502.48 149.467C1503.07 148.721 1503.55 147.855 1503.55 147.543C1503.55 147.231 1504.54 145.831 1505.75 144.432C1509.63 139.958 1508.49 136.391 1502.35 133.771C1499.75 132.661 1498.6 131.329 1498.6 129.441C1498.6 128.875 1497.78 127.62 1496.78 126.653C1495.17 125.094 1494.62 124.899 1491.96 124.937C1490.31 124.961 1488.59 125.118 1488.14 125.285ZM1178.94 176.399C1179.13 176.878 1179.28 178.235 1179.28 179.415C1179.28 180.594 1179.66 182.525 1180.14 183.706C1181.22 186.415 1180.63 189.053 1178.59 190.573C1177.38 191.478 1176.98 191.545 1176.27 190.959C1175.59 190.393 1175.42 188.926 1175.42 183.551C1175.42 176.682 1175.75 175.528 1177.68 175.528C1178.19 175.528 1178.76 175.92 1178.94 176.399ZM517.41 307.48C517.186 308.641 516.209 308.567 515.96 307.372C515.856 306.873 516.159 306.517 516.688 306.517C517.256 306.517 517.525 306.878 517.41 307.48ZM736.634 315.445C736.634 316.907 737.086 318.191 738.043 319.446C739.139 320.883 739.55 322.257 739.89 325.633C740.253 329.228 740.625 330.383 742.059 332.362C743.754 334.701 743.791 334.882 743.791 340.876C743.791 345.116 744.02 347.334 744.535 348.085C745.79 349.918 745.921 351.454 746.059 365.958C746.173 377.956 746.064 380.232 745.309 381.643C744.824 382.551 740.56 387.133 735.835 391.825C731.109 396.517 726.507 401.536 725.607 402.978C724.708 404.42 717.211 412.345 708.948 420.59C700.684 428.835 692.62 437.239 691.026 439.267C689.433 441.295 687.632 443.111 687.025 443.304C686.417 443.497 685.687 444.268 685.402 445.017C685.117 445.766 684.662 446.241 684.39 446.074C683.794 445.705 684.546 442.025 685.39 441.182C685.716 440.855 685.983 440.038 685.983 439.365C685.983 438.692 686.602 437.405 687.359 436.506C688.117 435.605 688.738 434.165 688.742 433.299C688.752 431.011 690.006 426.673 691.68 423.144C692.483 421.449 693.14 419.623 693.14 419.085C693.14 418.547 694.007 416.187 695.067 413.84C696.127 411.494 696.994 408.9 696.994 408.077C696.994 407.254 697.508 405.859 698.135 404.979C698.762 404.098 699.727 401.8 700.278 399.873C700.829 397.947 701.66 395.781 702.125 395.061C702.589 394.341 703.356 392.239 703.83 390.39C704.304 388.542 705.285 385.942 706.011 384.612C706.737 383.282 707.489 381.291 707.682 380.188C707.875 379.085 708.77 377.255 709.671 376.122C710.571 374.989 711.308 373.53 711.308 372.88C711.308 371.617 714.556 363.097 716.255 359.904C716.818 358.844 717.583 356.739 717.955 355.225C718.326 353.712 719.22 351.29 719.941 349.843C720.662 348.397 721.486 345.98 721.773 344.473C722.058 342.966 722.771 341.054 723.356 340.224C723.94 339.393 724.579 337.772 724.776 336.622C724.972 335.471 725.859 333.384 726.747 331.984C727.635 330.584 728.521 328.554 728.716 327.472C729.143 325.105 729.769 323.809 731.486 321.748C732.511 320.515 732.78 319.54 732.78 317.055C732.78 315.068 733.104 313.455 733.661 312.659C734.5 311.462 734.594 311.447 735.588 312.347C736.276 312.969 736.634 314.029 736.634 315.445Z" fill="black"></path></svg>